{
	"asset":{
		"generator":"Khronos glTF Blender I/O v4.3.47",
		"version":"2.0"
	},
	"extensionsUsed":[
		"KHR_materials_specular"
	],
	"scene":0,
	"scenes":[
		{
			"name":"Scene",
			"nodes":[
				0,
				1
			]
		}
	],
	"nodes":[
		{
			"mesh":0,
			"name":"sm_2_0_0",
			"translation":[
				0,
				0.16118156909942627,
				0
			]
		},
		{
			"mesh":1,
			"name":"sm_1_0_0",
			"translation":[
				0,
				0.16118156909942627,
				0
			]
		}
	],
	"materials":[
		{
			"doubleSided":true,
			"extensions":{
				"KHR_materials_specular":{
					"specularFactor":0
				}
			},
			"name":"Material",
			"pbrMetallicRoughness":{
				"baseColorTexture":{
					"index":0
				},
				"metallicFactor":0
			}
		},
		{
			"doubleSided":true,
			"extensions":{
				"KHR_materials_specular":{
					"specularFactor":0
				}
			},
			"name":"Material.001",
			"pbrMetallicRoughness":{
				"baseColorTexture":{
					"index":1
				},
				"metallicFactor":0
			}
		}
	],
	"meshes":[
		{
			"name":"sm_2_0_0_mesh0001",
			"primitives":[
				{
					"attributes":{
						"POSITION":0,
						"NORMAL":1,
						"TEXCOORD_0":2,
						"TEXCOORD_1":3,
						"COLOR_0":4,
						"COLOR_1":5
					},
					"indices":6,
					"material":0
				}
			]
		},
		{
			"name":"sm_1_0_0_mesh0000",
			"primitives":[
				{
					"attributes":{
						"POSITION":7,
						"NORMAL":8,
						"TEXCOORD_0":9,
						"TEXCOORD_1":10,
						"COLOR_0":11,
						"COLOR_1":12
					},
					"indices":13,
					"material":1
				}
			]
		}
	],
	"textures":[
		{
			"sampler":0,
			"source":0
		},
		{
			"sampler":0,
			"source":1
		}
	],
	"images":[
		{
			"mimeType":"image/png",
			"name":"a_c_beaver_01_head_000_c0_002_ab_upscayl_3x_realesrgan-x4plus",
			"uri":"a_c_beaver_01_head_000_c0_002_ab_upscayl_3x_realesrgan-x4plus.png"
		},
		{
			"mimeType":"image/png",
			"name":"a_c_beaver_01_teef_000_c0_000_ab",
			"uri":"a_c_beaver_01_teef_000_c0_000_ab.png"
		}
	],
	"accessors":[
		{
			"bufferView":0,
			"componentType":5126,
			"count":3276,
			"max":[
				0.20849600434303284,
				0.3034670054912567,
				0.5366209745407104
			],
			"min":[
				-0.20849600434303284,
				-0.16418500244617462,
				-0.8521729707717896
			],
			"type":"VEC3"
		},
		{
			"bufferView":1,
			"componentType":5126,
			"count":3276,
			"type":"VEC3"
		},
		{
			"bufferView":2,
			"componentType":5126,
			"count":3276,
			"type":"VEC2"
		},
		{
			"bufferView":3,
			"componentType":5126,
			"count":3276,
			"type":"VEC2"
		},
		{
			"bufferView":4,
			"componentType":5121,
			"count":3276,
			"normalized":true,
			"type":"VEC4"
		},
		{
			"bufferView":5,
			"componentType":5123,
			"count":3276,
			"normalized":true,
			"type":"VEC4"
		},
		{
			"bufferView":6,
			"componentType":5123,
			"count":15198,
			"type":"SCALAR"
		},
		{
			"bufferView":7,
			"componentType":5126,
			"count":401,
			"max":[
				0.0399169996380806,
				0.09851100295782089,
				0.5064700245857239
			],
			"min":[
				-0.0399169996380806,
				-0.0034179999493062496,
				0.4050289988517761
			],
			"type":"VEC3"
		},
		{
			"bufferView":8,
			"componentType":5126,
			"count":401,
			"type":"VEC3"
		},
		{
			"bufferView":9,
			"componentType":5126,
			"count":401,
			"type":"VEC2"
		},
		{
			"bufferView":10,
			"componentType":5126,
			"count":401,
			"type":"VEC2"
		},
		{
			"bufferView":11,
			"componentType":5121,
			"count":401,
			"normalized":true,
			"type":"VEC4"
		},
		{
			"bufferView":12,
			"componentType":5123,
			"count":401,
			"normalized":true,
			"type":"VEC4"
		},
		{
			"bufferView":13,
			"componentType":5123,
			"count":1584,
			"type":"SCALAR"
		}
	],
	"bufferViews":[
		{
			"buffer":0,
			"byteLength":39312,
			"byteOffset":0,
			"target":34962
		},
		{
			"buffer":0,
			"byteLength":39312,
			"byteOffset":39312,
			"target":34962
		},
		{
			"buffer":0,
			"byteLength":26208,
			"byteOffset":78624,
			"target":34962
		},
		{
			"buffer":0,
			"byteLength":26208,
			"byteOffset":104832,
			"target":34962
		},
		{
			"buffer":0,
			"byteLength":13104,
			"byteOffset":131040,
			"target":34962
		},
		{
			"buffer":0,
			"byteLength":26208,
			"byteOffset":144144,
			"target":34962
		},
		{
			"buffer":0,
			"byteLength":30396,
			"byteOffset":170352,
			"target":34963
		},
		{
			"buffer":0,
			"byteLength":4812,
			"byteOffset":200748,
			"target":34962
		},
		{
			"buffer":0,
			"byteLength":4812,
			"byteOffset":205560,
			"target":34962
		},
		{
			"buffer":0,
			"byteLength":3208,
			"byteOffset":210372,
			"target":34962
		},
		{
			"buffer":0,
			"byteLength":3208,
			"byteOffset":213580,
			"target":34962
		},
		{
			"buffer":0,
			"byteLength":1604,
			"byteOffset":216788,
			"target":34962
		},
		{
			"buffer":0,
			"byteLength":3208,
			"byteOffset":218392,
			"target":34962
		},
		{
			"buffer":0,
			"byteLength":3168,
			"byteOffset":221600,
			"target":34963
		}
	],
	"samplers":[
		{
			"magFilter":9729,
			"minFilter":9987
		}
	],
	"buffers":[
		{
			"byteLength":224768,
			"uri":"Beaver.bin"
		}
	]
}
